<svg width="35" height="35" viewBox="0 0 35 35" fill="none" xmlns="http://www.w3.org/2000/svg">
<g clip-path="url(#clip0_97_98)">
<path fill-rule="evenodd" clip-rule="evenodd" d="M17.5 9.68645e-07C13.3434 -0.00138136 9.32203 1.47679 6.15586 4.16986C2.98969 6.86294 0.885478 10.5951 0.219952 14.698C-0.445573 18.801 0.371052 23.0069 2.52362 26.5627C4.67618 30.1185 8.02413 32.792 11.968 34.1046C12.8374 34.2669 13.1619 33.725 13.1619 33.2613C13.1619 32.844 13.1475 31.4675 13.1388 30.0041C8.27041 31.0619 7.24458 27.9409 7.24458 27.9409C6.44767 25.9124 5.30013 25.3792 5.30013 25.3792C3.71212 24.2925 5.41894 24.3157 5.41894 24.3157C7.17793 24.4403 8.10233 26.1182 8.10233 26.1182C9.66426 28.7928 12.197 28.022 13.1938 27.5671C13.3532 26.4369 13.8053 25.6661 14.3066 25.2285C10.4322 24.7909 6.33176 23.2899 6.33176 16.5843C6.30575 14.8426 6.9524 13.158 8.13711 11.8811C7.95454 11.4406 7.35469 9.66137 8.30518 7.24458C8.30518 7.24458 9.77438 6.77513 13.1185 9.03834C15.9878 8.25397 19.0151 8.25397 21.8844 9.03834C25.2111 6.78672 26.6919 7.24458 26.6919 7.24458C27.6424 9.65557 27.0455 11.4348 26.8629 11.8811C28.0444 13.1573 28.6888 14.8396 28.6624 16.5785C28.6624 23.3015 24.5707 24.7794 20.6731 25.214C21.2991 25.7559 21.8583 26.8223 21.8583 28.4538C21.8583 30.7953 21.841 32.6817 21.841 33.2555C21.841 33.7221 22.1539 34.2669 23.0407 34.0959C26.9788 32.7784 30.3202 30.1033 32.4674 26.5488C34.6147 22.9943 35.428 18.792 34.7619 14.693C34.0958 10.5941 31.9938 6.86553 28.8315 4.17384C25.6692 1.48216 21.6527 0.0027374 17.5 9.68645e-07V9.68645e-07Z" fill="#191717"/>
<path d="M6.62733 25.1242C6.58966 25.2111 6.45346 25.2372 6.33755 25.1792C6.22163 25.1213 6.13759 25.0025 6.17816 24.9155C6.21873 24.8286 6.35493 24.8025 6.46795 24.8605C6.58096 24.9184 6.6679 25.0372 6.62443 25.1242H6.62733Z" fill="#191717"/>
<path d="M7.33732 25.9153C7.25328 25.9936 7.091 25.9559 6.97798 25.8342C6.92516 25.7915 6.89065 25.7302 6.88149 25.6628C6.87234 25.5955 6.88923 25.5272 6.92872 25.472C7.01566 25.3937 7.17214 25.4314 7.28805 25.5531C7.40397 25.6748 7.42425 25.8429 7.33732 25.9153Z" fill="#191717"/>
<path d="M8.02699 26.9238C7.91977 26.9991 7.73721 26.9238 7.63578 26.7731C7.53436 26.6224 7.52856 26.4311 7.63578 26.3558C7.743 26.2804 7.92557 26.3558 8.02699 26.5036C8.12841 26.6514 8.13421 26.8484 8.02699 26.9238V26.9238Z" fill="#191717"/>
<path d="M8.98328 27.8974C8.94803 27.9229 8.90805 27.9412 8.86568 27.9511C8.8233 27.9609 8.77938 27.9623 8.73649 27.955C8.69359 27.9477 8.65257 27.9319 8.61583 27.9086C8.5791 27.8853 8.54738 27.8549 8.52252 27.8192C8.36894 27.6772 8.32547 27.4772 8.424 27.3729C8.52252 27.2686 8.71378 27.2947 8.87606 27.4396C9.03834 27.5845 9.07311 27.7815 8.97169 27.8858L8.98328 27.8974Z" fill="#191717"/>
<path d="M10.2757 28.4625C10.2322 28.5987 10.0381 28.6624 9.83812 28.6045C9.63817 28.5465 9.51066 28.3842 9.54834 28.2451C9.58601 28.106 9.78596 28.0423 9.98591 28.1031C10.1859 28.164 10.3134 28.3234 10.2757 28.4625Z" fill="#191717"/>
<path d="M11.7072 28.5668C11.7072 28.7117 11.545 28.8305 11.3363 28.8334C11.1277 28.8363 10.9596 28.7233 10.9567 28.5813C10.9538 28.4393 11.119 28.3147 11.3305 28.3118C11.5421 28.3089 11.7072 28.4248 11.7072 28.5668V28.5668Z" fill="#191717"/>
<path d="M13.0402 28.3408C13.0663 28.4827 12.9214 28.6305 12.7157 28.6653C12.5099 28.7001 12.3245 28.616 12.2984 28.4741C12.2723 28.3321 12.4201 28.1843 12.623 28.1495C12.8258 28.1147 13.0142 28.1988 13.0402 28.3408Z" fill="#191717"/>
</g>
<defs>
<clipPath id="clip0_97_98">
<rect width="35" height="34.1335" fill="white"/>
</clipPath>
</defs>
</svg>
